<svg width="31" height="31" viewBox="0 0 31 31" fill="none" xmlns="http://www.w3.org/2000/svg">
<mask id="mask0_192_9" style="mask-type:alpha" maskUnits="userSpaceOnUse" x="0" y="0" width="31" height="31">
<rect x="0.5" y="0.5" width="30" height="30" fill="#D9D9D9"/>
</mask>
<g mask="url(#mask0_192_9)">
<path d="M11.75 11.75V9.25H23V11.75H11.75ZM11.75 15.5V13H23V15.5H11.75ZM15.5 28H8C6.95833 28 6.07292 27.6354 5.34375 26.9062C4.61458 26.1771 4.25 25.2917 4.25 24.25V20.5H8V3H26.75V14.2813C26.3333 14.2396 25.9115 14.2552 25.4844 14.3281C25.0573 14.401 24.6458 14.5312 24.25 14.7188V5.5H10.5V20.5H18L15.5 23H6.75V24.25C6.75 24.6042 6.86979 24.901 7.10938 25.1406C7.34896 25.3802 7.64583 25.5 8 25.5H15.5V28ZM18 28V24.1563L24.9062 17.2812C25.0938 17.0938 25.3021 16.9583 25.5312 16.875C25.7604 16.7917 25.9896 16.75 26.2188 16.75C26.4688 16.75 26.7083 16.7969 26.9375 16.8906C27.1667 16.9844 27.375 17.125 27.5625 17.3125L28.7188 18.4688C28.8854 18.6562 29.0156 18.8646 29.1094 19.0938C29.2031 19.3229 29.25 19.5521 29.25 19.7812C29.25 20.0104 29.2083 20.2448 29.125 20.4844C29.0417 20.724 28.9062 20.9375 28.7188 21.125L21.8438 28H18ZM19.875 26.125H21.0625L24.8438 22.3125L24.2812 21.7188L23.6875 21.1562L19.875 24.9375V26.125ZM24.2812 21.7188L23.6875 21.1562L24.8438 22.3125L24.2812 21.7188Z" fill="white"/>
</g>
</svg>
