<svg width="28" height="28" viewBox="0 0 28 28" fill="none" xmlns="http://www.w3.org/2000/svg">
<mask id="mask0_1_29" style="mask-type:alpha" maskUnits="userSpaceOnUse" x="0" y="0" width="28" height="28">
<rect width="28" height="28" fill="#D9D9D9"/>
</mask>
<g mask="url(#mask0_1_29)">
<path d="M13.9998 13.9998C12.7165 13.9998 11.6179 13.5429 10.704 12.629C9.79012 11.7151 9.33317 10.6165 9.33317 9.33317C9.33317 8.04984 9.79012 6.95123 10.704 6.03734C11.6179 5.12345 12.7165 4.6665 13.9998 4.6665C15.2832 4.6665 16.3818 5.12345 17.2957 6.03734C18.2096 6.95123 18.6665 8.04984 18.6665 9.33317C18.6665 10.6165 18.2096 11.7151 17.2957 12.629C16.3818 13.5429 15.2832 13.9998 13.9998 13.9998ZM4.6665 23.3332V20.0665C4.6665 19.4054 4.83664 18.7978 5.17692 18.2436C5.5172 17.6894 5.96928 17.2665 6.53317 16.9748C7.73873 16.3721 8.96373 15.92 10.2082 15.6186C11.4526 15.3172 12.7165 15.1665 13.9998 15.1665C15.2832 15.1665 16.5471 15.3172 17.7915 15.6186C19.0359 15.92 20.261 16.3721 21.4665 16.9748C22.0304 17.2665 22.4825 17.6894 22.8228 18.2436C23.163 18.7978 23.3332 19.4054 23.3332 20.0665V23.3332H4.6665ZM6.99984 20.9998H20.9998V20.0665C20.9998 19.8526 20.9464 19.6582 20.8394 19.4832C20.7325 19.3082 20.5915 19.1721 20.4165 19.0748C19.3665 18.5498 18.3068 18.1561 17.2373 17.8936C16.1679 17.6311 15.0887 17.4998 13.9998 17.4998C12.9109 17.4998 11.8318 17.6311 10.7623 17.8936C9.69289 18.1561 8.63317 18.5498 7.58317 19.0748C7.40817 19.1721 7.2672 19.3082 7.16025 19.4832C7.05331 19.6582 6.99984 19.8526 6.99984 20.0665V20.9998ZM13.9998 11.6665C14.6415 11.6665 15.1908 11.438 15.6478 10.9811C16.1047 10.5241 16.3332 9.97484 16.3332 9.33317C16.3332 8.6915 16.1047 8.1422 15.6478 7.68525C15.1908 7.22831 14.6415 6.99984 13.9998 6.99984C13.3582 6.99984 12.8089 7.22831 12.3519 7.68525C11.895 8.1422 11.6665 8.6915 11.6665 9.33317C11.6665 9.97484 11.895 10.5241 12.3519 10.9811C12.8089 11.438 13.3582 11.6665 13.9998 11.6665Z" fill="#1C1B1F"/>
</g>
</svg>
